<?xml version="1.0" standalone="no"?>
<!DOCTYPE svg PUBLIC "-//W3C//DTD SVG 20010904//EN"
 "http://www.w3.org/TR/2001/REC-SVG-20010904/DTD/svg10.dtd">
<svg version="1.0"
        xmlns="http://www.w3.org/2000/svg" width="1200.000000pt" height="1200.000000pt" viewBox="0 0 1200.000000 1200.000000" preserveAspectRatio="xMidYMid meet">

        <g transform="translate(0.000000,1200.000000) scale(0.100000,-0.100000)" fill="#000" stroke="none">
                <path d="M5868 8319 c-10 -5 -22 -26 -27 -47 -14 -53 -34 -464 -27 -542 l6
-65 -77 -69 c-82 -74 -142 -142 -216 -246 l-46 -66 -168 -58 c-92 -32 -201
-67 -241 -78 -88 -26 -141 -68 -177 -141 -137 -281 167 -517 667 -517 l117 0
40 -52 c73 -99 121 -215 146 -358 6 -36 16 -64 21 -63 10 2 1247 503 1252 507
5 6 -41 229 -80 381 -72 284 -149 482 -241 615 -67 99 -101 172 -167 365 -97
284 -173 410 -261 436 -76 23 -99 -26 -99 -218 0 -198 -8 -273 -30 -273 -12 0
-24 18 -39 58 -12 31 -46 98 -75 147 -29 50 -68 118 -86 153 -58 110 -137 164
-192 131z m70 -171 c11 -18 26 -55 33 -83 11 -46 21 -71 76 -180 11 -22 23
-52 26 -66 6 -23 3 -27 -32 -37 -21 -7 -63 -25 -94 -40 l-56 -28 -6 35 c-3 20
-1 122 5 226 5 105 10 193 10 198 0 17 20 4 38 -25z m488 -107 c14 -46 36
-136 49 -200 13 -64 35 -170 50 -236 17 -77 27 -153 27 -213 1 -81 4 -94 21
-104 64 -34 70 121 13 387 -42 198 -77 354 -83 375 -2 8 3 2 12 -13 9 -15 38
-95 66 -178 61 -185 91 -253 162 -360 94 -144 153 -283 217 -508 37 -133 101
-413 96 -419 -3 -2 -256 -106 -563 -231 l-558 -227 -8 36 c-28 118 -86 253
-138 319 -11 13 -17 27 -14 30 3 3 40 4 81 2 182 -6 252 67 274 286 6 62 8
122 5 134 -10 29 -73 55 -182 73 -139 25 -200 49 -290 118 -28 22 -68 59 -88
84 l-36 44 49 72 c166 245 390 401 640 443 l44 7 -7 -44 c-10 -65 -11 -234 -1
-301 9 -71 35 -104 67 -86 17 9 20 17 14 42 -13 63 -17 288 -6 369 6 46 13
130 16 188 3 58 8 134 11 170 6 59 7 63 20 45 8 -11 26 -58 40 -104z m-284
-148 c28 -58 30 -83 7 -83 -5 0 -9 11 -9 25 0 13 -20 63 -45 111 -25 47 -45
91 -45 97 0 16 59 -79 92 -150z m-619 -743 c81 -108 214 -187 357 -215 131
-25 180 -36 184 -44 10 -16 -17 -200 -35 -238 -31 -66 -58 -78 -174 -80 -55
-1 -161 -4 -236 -8 -247 -13 -458 34 -584 131 l-36 27 31 32 c22 23 44 34 72
38 22 3 51 16 64 28 47 44 22 154 -50 217 -23 20 -32 34 -24 36 7 2 78 26 158
54 80 27 159 54 175 60 49 17 58 13 98 -38z m-428 -194 c18 -23 25 -44 23 -63
-3 -30 -14 -32 -102 -17 -32 5 -42 3 -53 -12 -21 -29 -18 75 4 106 40 58 76
54 128 -14z"/>
                <path d="M5770 7377 c-30 -15 -36 -39 -16 -60 9 -9 14 -21 12 -29 -2 -7 -7
-25 -10 -40 -4 -16 -13 -28 -21 -28 -41 0 -28 -63 16 -79 61 -21 116 -12 235
39 41 18 44 21 33 41 -20 38 -92 111 -138 141 -49 31 -73 34 -111 15z m134
-154 c-25 -18 -48 -17 -40 3 3 9 6 25 6 37 0 20 1 20 26 -4 23 -22 24 -24 8
-36z"/>
                <path d="M6206 6694 c-16 -42 5 -74 49 -74 17 0 49 65 40 80 -10 17 -82 12
-89 -6z"/>
                <path d="M4826 5739 c-3 -8 -37 -167 -76 -354 -39 -187 -74 -350 -77 -362 -5
-22 -3 -23 69 -23 138 0 205 35 247 130 41 93 101 373 101 471 0 110 -30 136
-169 146 -73 5 -91 3 -95 -8z m142 -160 c3 -53 -60 -362 -85 -415 -15 -31 -55
-55 -69 -42 -4 4 89 457 102 496 2 7 14 12 26 10 20 -3 23 -10 26 -49z"/>
                <path d="M6536 5739 c-3 -8 -37 -167 -76 -354 -39 -187 -74 -350 -77 -362 -5
-22 -3 -23 69 -23 138 0 205 35 247 130 41 93 101 373 101 471 0 110 -30 136
-169 146 -73 5 -91 3 -95 -8z m142 -160 c3 -53 -60 -362 -85 -415 -15 -31 -55
-55 -69 -42 -4 4 89 457 102 496 2 7 14 12 26 10 20 -3 23 -10 26 -49z"/>
                <path d="M5205 5540 c-49 -31 -73 -88 -110 -256 -40 -179 -41 -193 -19 -240
42 -88 194 -56 239 51 7 17 27 98 45 180 50 232 36 285 -74 285 -33 0 -62 -7
-81 -20z m82 -86 c8 -21 -54 -312 -73 -341 -17 -26 -39 -30 -48 -8 -6 17 57
313 74 345 13 24 38 26 47 4z"/>
                <path d="M5525 5540 c-43 -27 -73 -85 -95 -187 -24 -106 -24 -135 -5 -173 14
-27 13 -29 -11 -45 -49 -32 -66 -114 -27 -129 12 -5 6 -13 -26 -36 -43 -31
-57 -64 -47 -105 12 -47 103 -73 196 -55 62 12 95 32 127 79 l22 32 3 -37 c5
-59 40 -79 139 -78 69 1 86 5 126 30 54 34 83 83 83 140 0 56 -36 87 -119 103
-42 8 -61 17 -61 27 0 16 7 19 63 29 49 8 102 55 121 108 8 23 23 82 32 130
16 83 18 88 45 94 28 5 31 10 43 66 8 33 -14 37 -58 8 -29 -19 -30 -19 -54 0
-57 45 -162 14 -205 -60 -42 -71 -71 -257 -46 -302 9 -17 4 -27 -25 -60 -39
-43 -46 -81 -20 -110 14 -15 12 -18 -20 -38 -19 -12 -36 -27 -39 -34 -2 -7 -3
10 -3 36 1 57 -20 80 -87 97 -76 18 -92 25 -92 40 0 9 16 17 43 22 100 17 139
69 170 228 18 91 20 95 49 104 26 8 32 16 37 49 4 22 4 42 1 46 -4 3 -24 -4
-47 -16 -39 -22 -40 -22 -61 -3 -28 27 -111 27 -152 0z m78 -93 c6 -15 -29
-181 -44 -208 -11 -22 -35 -25 -42 -6 -6 16 32 198 45 215 13 16 35 16 41 -1z
m347 -9 c0 -13 -9 -61 -19 -107 -20 -88 -42 -124 -62 -104 -9 9 -7 34 6 100
24 118 31 133 55 133 14 0 20 -6 20 -22z m-397 -487 c27 -27 -41 -64 -98 -54
-35 7 -42 28 -19 54 16 18 26 20 64 15 24 -3 48 -10 53 -15z m343 -2 c34 -28
-49 -69 -101 -49 -29 11 -32 32 -8 55 19 19 83 16 109 -6z"/>
                <path d="M6205 5529 c-50 -44 -59 -65 -95 -229 -40 -186 -42 -243 -7 -278 34
-33 106 -36 158 -6 49 29 75 83 105 224 38 180 43 219 32 256 -12 46 -42 64
-105 64 -44 0 -58 -5 -88 -31z m93 -88 c4 -25 -55 -306 -69 -333 -6 -10 -19
-18 -29 -18 -15 0 -20 7 -20 30 0 51 61 314 78 333 19 22 36 17 40 -12z"/>
                <path d="M6915 5540 c-49 -31 -73 -88 -110 -256 -40 -179 -41 -193 -19 -240
42 -88 194 -56 239 51 7 17 27 98 45 180 50 232 36 285 -74 285 -33 0 -62 -7
-81 -20z m82 -86 c8 -21 -54 -312 -73 -341 -17 -26 -39 -30 -48 -8 -6 17 57
313 74 345 13 24 38 26 47 4z"/>
                <path d="M7230 5534 c-46 -39 -65 -84 -99 -242 -47 -218 -41 -269 37 -293 77
-23 164 29 190 113 28 87 74 341 68 373 -10 50 -47 75 -112 75 -42 0 -59 -5
-84 -26z m94 -79 c8 -21 -63 -337 -79 -354 -18 -18 -45 -7 -45 18 0 39 62 306
76 329 17 25 39 29 48 7z"/>
        </g>
</svg>
