<svg width="24" height="18" viewBox="0 0 24 18" fill="#000"
    xmlns="http://www.w3.org/2000/svg">
    <path d="M11.9977 13.0001C10.9287 13.0001 9.92369 12.5841 9.16969 11.8281C8.97469 11.6331 8.97469 11.3151 9.16969 11.1211C9.36469 10.9261 9.68169 10.9261 9.87669 11.1211C10.4427 11.6881 11.1957 12.0001 11.9977 12.0001C13.6517 12.0001 14.9977 10.6541 14.9977 9.00013C14.9977 8.19813 14.6847 7.44513 14.1187 6.87913C13.9237 6.68513 13.9237 6.36713 14.1187 6.17213C14.3137 5.97713 14.6307 5.97713 14.8257 6.17213C15.5817 6.92613 15.9977 7.93113 15.9977 9.00013C15.9977 11.2061 14.2037 13.0001 11.9977 13.0001Z" fill="#000"/>
    <path d="M8.561 10.11C8.324 10.11 8.113 9.939 8.07 9.697C8.029 9.47 8 9.238 8 9C8 6.794 9.794 5 12 5C12.238 5 12.47 5.029 12.697 5.069C12.968 5.117 13.15 5.377 13.102 5.648C13.054 5.919 12.789 6.107 12.523 6.053C12.353 6.023 12.18 6 12 6C10.346 6 9 7.346 9 9C9 9.18 9.023 9.353 9.054 9.523C9.102 9.794 8.92 10.054 8.649 10.102C8.619 10.108 8.59 10.11 8.561 10.11Z" fill="#000"/>
    <path d="M12.0031 16C10.1741 16 8.3361 15.562 6.5411 14.695C6.2921 14.575 6.1871 14.276 6.3081 14.028C6.4281 13.779 6.7291 13.674 6.9751 13.795C8.6341 14.595 10.3251 15 12.0031 15C16.9481 15 21.6391 10.291 22.8311 9.00003C22.0461 8.15203 19.7501 5.83003 16.8761 4.34203C16.6301 4.21503 16.5341 3.91303 16.6611 3.66803C16.7881 3.42203 17.0931 3.32603 17.3351 3.45303C21.0661 5.38603 23.7711 8.54303 23.8841 8.67703C24.0421 8.86403 24.0431 9.13703 23.8851 9.32303C23.6541 9.59603 18.1641 16 12.0031 16Z" fill="#000"/>
    <path d="M4.95304 13.719C4.85704 13.719 4.76204 13.692 4.67704 13.635C1.81204 11.732 0.159043 9.385 0.0900431 9.286C-0.0399569 9.099 -0.0279569 8.849 0.118043 8.677C0.349043 8.404 5.83904 2 12 2C13.039 2 14.143 2.193 15.281 2.576C15.543 2.664 15.683 2.947 15.595 3.209C15.508 3.472 15.224 3.617 14.962 3.523C13.928 3.176 12.931 3 12 3C7.01904 3 2.29704 7.777 1.14604 9.027C1.68504 9.714 3.12504 11.403 5.22904 12.802C5.45904 12.954 5.52204 13.265 5.36904 13.494C5.27304 13.641 5.11404 13.719 4.95304 13.719Z" fill="#000"/>
    <path d="M3.50025 18.0002C3.37225 18.0002 3.24425 17.9512 3.14625 17.8542C2.95125 17.6592 2.95125 17.3422 3.14625 17.1472L20.1462 0.147227C20.3412 -0.0477734 20.6583 -0.0477734 20.8533 0.147227C21.0483 0.342227 21.0483 0.659227 20.8533 0.854227L3.85325 17.8542C3.75625 17.9512 3.62825 18.0002 3.50025 18.0002Z" fill="black"/>
</svg>
