<svg width="24" height="24" viewBox="0 0 24 24" fill="none"
    xmlns="http://www.w3.org/2000/svg">
    <path d="M11.9998 19C5.83875 19 0.34875 12.596 0.11775 12.323C-0.03925 12.136 -0.03925 11.863 0.11775 11.677C0.34875 11.404 5.83875 5 11.9998 5C19.1798 5 23.7218 11.441 23.9107 11.716C24.0397 11.902 24.0268 12.151 23.8818 12.323C23.6507 12.596 18.1607 19 11.9998 19ZM1.17175 12C2.36475 13.29 7.06075 18 11.9998 18C16.9808 18 21.7038 13.222 22.8538 11.973C21.8577 10.703 17.7787 6 11.9998 6C7.05375 6 2.36275 10.709 1.17175 12Z" fill="#000"/>
    <path d="M12 16C9.794 16 8 14.206 8 12C8 9.794 9.794 8 12 8C14.206 8 16 9.794 16 12C16 14.206 14.206 16 12 16ZM12 9C10.346 9 9 10.346 9 12C9 13.654 10.346 15 12 15C13.654 15 15 13.654 15 12C15 10.346 13.654 9 12 9Z" fill="#000"/>
</svg>
