<svg width="49" height="46" viewBox="0 0 49 46" fill="none"
    xmlns="http://www.w3.org/2000/svg">
    <path d="M16.8499 19.4473L7.30523 28.9851C5.45599 30.8365 4.41727 33.3462 4.41727 35.963C4.41727 38.5797 5.45599 41.0894 7.30523 42.9408V42.9408C9.1566 44.79 11.6663 45.8288 14.2831 45.8288C16.8998 45.8288 19.4095 44.79 21.2609 42.9408L23.8226 40.3756L16.8465 33.3995C15.9304 32.4833 15.2037 31.3956 14.708 30.1985C14.2124 29.0014 13.9574 27.7184 13.9577 26.4227C13.958 25.127 14.2136 23.8441 14.7099 22.6472C15.2061 21.4504 15.9333 20.363 16.8499 19.4473Z" fill="#F7B327"/>
    <path d="M30.8021 19.4473C31.7185 20.3632 32.4454 21.4508 32.9414 22.6478C33.4374 23.8447 33.6926 25.1277 33.6926 26.4234C33.6926 27.7191 33.4374 29.002 32.9414 30.199C32.4454 31.396 31.7185 32.4835 30.8021 33.3995L23.826 40.3756L26.3912 42.9408C28.242 44.7898 30.7511 45.8285 33.3673 45.8285C35.9835 45.8285 38.4926 44.7898 40.3434 42.9408V42.9408C41.2599 42.0245 41.9869 40.9367 42.4829 39.7394C42.9789 38.5422 43.2342 37.2589 43.2342 35.963C43.2342 34.667 42.9789 33.3838 42.4829 32.1865C41.9869 30.9892 41.2599 29.9014 40.3434 28.9851L30.8021 19.4473Z" fill="#F7B327"/>
    <path d="M30.8022 19.4472C29.8862 18.5309 28.7987 17.8039 27.6017 17.308C26.4047 16.812 25.1217 16.5568 23.8261 16.5568C22.5304 16.5568 21.2474 16.812 20.0504 17.308C18.8534 17.8039 17.7659 18.5309 16.8499 19.4472C15.9336 20.3632 15.2066 21.4508 14.7107 22.6477C14.2147 23.8447 13.9594 25.1277 13.9594 26.4234C13.9594 27.719 14.2147 29.002 14.7107 30.199C15.2066 31.396 15.9336 32.4835 16.8499 33.3995L23.8261 40.3756L30.8022 33.3995C31.7185 32.4835 32.4455 31.396 32.9414 30.199C33.4374 29.002 33.6927 27.719 33.6927 26.4234C33.6927 25.1277 33.4374 23.8447 32.9414 22.6477C32.4455 21.4508 31.7185 20.3632 30.8022 19.4472ZM26.8086 29.3923C26.2187 29.9821 25.4672 30.3837 24.6491 30.5464C23.831 30.7091 22.983 30.6255 22.2124 30.3063C21.4417 29.987 20.7831 29.4464 20.3197 28.7529C19.8563 28.0593 19.6089 27.2439 19.6089 26.4098C19.6089 25.5757 19.8563 24.7603 20.3197 24.0667C20.7831 23.3731 21.4417 22.8326 22.2124 22.5133C22.983 22.1941 23.831 22.1105 24.6491 22.2732C25.4672 22.4359 26.2187 22.8375 26.8086 23.4273C27.2007 23.8187 27.5117 24.2836 27.724 24.7954C27.9362 25.3072 28.0455 25.8558 28.0455 26.4098C28.0455 26.9638 27.9362 27.5124 27.724 28.0242C27.5117 28.536 27.2007 29.0009 26.8086 29.3923Z" fill="#EF7E06"/>
    <path d="M5.473 22.3856C8.49566 22.3856 10.946 19.9353 10.946 16.9126C10.946 13.89 8.49566 11.4396 5.473 11.4396C2.45035 11.4396 0 13.89 0 16.9126C0 19.9353 2.45035 22.3856 5.473 22.3856Z" fill="#F7B327"/>
    <path d="M16.4495 11.4057C19.4722 11.4057 21.9225 8.95534 21.9225 5.93269C21.9225 2.91003 19.4722 0.459686 16.4495 0.459686C13.4268 0.459686 10.9765 2.91003 10.9765 5.93269C10.9765 8.95534 13.4268 11.4057 16.4495 11.4057Z" fill="#F7B327"/>
    <path d="M31.6334 11.1173C34.6561 11.1173 37.1064 8.66692 37.1064 5.64427C37.1064 2.62161 34.6561 0.171265 31.6334 0.171265C28.6108 0.171265 26.1604 2.62161 26.1604 5.64427C26.1604 8.66692 28.6108 11.1173 31.6334 11.1173Z" fill="#F7B327"/>
    <path d="M42.6134 22.0938C45.636 22.0938 48.0864 19.6435 48.0864 16.6208C48.0864 13.5982 45.636 11.1478 42.6134 11.1478C39.5907 11.1478 37.1404 13.5982 37.1404 16.6208C37.1404 19.6435 39.5907 22.0938 42.6134 22.0938Z" fill="#F7B327"/>
</svg>
